<svg xmlns="http://www.w3.org/2000/svg" xmlns:xlink="http://www.w3.org/1999/xlink" width="500" zoomAndPan="magnify" viewBox="0 0 375 374.999991" height="500" preserveAspectRatio="xMidYMid meet" version="1.0"><defs><clipPath id="5d1ae361d0"><path d="M 187.5 0 C 83.945312 0 0 83.945312 0 187.5 C 0 291.054688 83.945312 375 187.5 375 C 291.054688 375 375 291.054688 375 187.5 C 375 83.945312 291.054688 0 187.5 0 Z M 187.5 0 " clip-rule="nonzero"/></clipPath><clipPath id="b1d7f67c24"><path d="M 182 207 L 306.996094 207 L 306.996094 331.75 L 182 331.75 Z M 182 207 " clip-rule="nonzero"/></clipPath></defs><g clip-path="url(#5d1ae361d0)"><rect x="-37.5" width="450" fill="#a6a6a6" y="-37.499999" height="449.999989" fill-opacity="1"/></g><path fill="#ffffff" d="M 153.6875 154.246094 C 184.410156 154.246094 209.324219 129.332031 209.324219 98.605469 C 209.324219 67.914062 184.378906 43 153.6875 43 C 122.960938 43 98.078125 67.914062 98.078125 98.605469 C 98.078125 129.332031 122.960938 154.246094 153.6875 154.246094 Z M 153.6875 154.246094 " fill-opacity="1" fill-rule="nonzero"/><path fill="#ffffff" d="M 225.386719 191.90625 C 218.511719 180.042969 207.5 170.976562 194.539062 166.203125 C 182.585938 173.441406 168.621094 177.699219 153.6875 177.699219 C 138.75 177.699219 124.785156 173.441406 112.921875 166.203125 C 92.507812 173.65625 77.148438 191.90625 74.410156 214.570312 L 68.539062 273.101562 C 67.808594 280.28125 73.039062 286.726562 80.28125 287.519531 C 100.785156 289.769531 135.160156 290.773438 167.40625 290.410156 C 165.671875 283.808594 164.726562 276.933594 164.726562 269.785156 C 164.699219 232.246094 190.554688 200.667969 225.386719 191.90625 Z M 225.386719 191.90625 " fill-opacity="1" fill-rule="nonzero"/><g clip-path="url(#b1d7f67c24)"><path fill="#ffffff" d="M 244.976562 207.574219 C 210.664062 207.574219 182.769531 235.46875 182.769531 269.785156 C 182.769531 304.097656 210.664062 331.996094 244.976562 331.996094 C 279.292969 331.996094 307.1875 304.097656 307.1875 269.785156 C 307.1875 235.46875 279.292969 207.574219 244.976562 207.574219 Z M 202.480469 248.335938 C 210.664062 232.183594 226.9375 222.144531 244.976562 222.144531 C 263.015625 222.144531 279.292969 232.183594 287.476562 248.308594 C 288.386719 250.132812 288.144531 252.230469 286.804688 253.8125 C 285.46875 255.425781 283.398438 256.066406 281.453125 255.425781 C 270.136719 251.988281 257.847656 250.285156 245.007812 250.285156 C 232.171875 250.285156 219.882812 252.019531 208.535156 255.457031 C 206.558594 256.066406 204.519531 255.425781 203.179688 253.84375 C 201.8125 252.292969 201.566406 250.164062 202.480469 248.335938 Z M 231.714844 313.226562 C 230.253906 314.257812 228.398438 314.472656 226.695312 313.773438 C 213.707031 308.359375 203.820312 297.527344 199.589844 284.113281 C 198.800781 281.585938 200.167969 278.847656 202.753906 277.875 C 204.519531 277.238281 206.28125 276.628906 208.078125 276.082031 C 210.542969 275.351562 213.15625 276.445312 214.222656 278.699219 C 217.570312 285.875 223.347656 291.71875 230.496094 295.09375 C 232.230469 295.914062 233.355469 297.589844 233.449219 299.445312 L 233.90625 308.8125 C 233.964844 310.609375 233.175781 312.191406 231.714844 313.226562 Z M 244.976562 283.777344 C 239.53125 283.777344 235.089844 279.335938 235.089844 273.890625 C 235.089844 268.445312 239.53125 264.003906 244.976562 264.003906 C 250.421875 264.003906 254.863281 268.445312 254.863281 273.890625 C 254.863281 279.335938 250.421875 283.777344 244.976562 283.777344 Z M 263.261719 313.742188 C 261.585938 314.441406 259.730469 314.230469 258.242188 313.226562 C 256.78125 312.222656 255.988281 310.609375 256.082031 308.8125 L 256.539062 299.476562 C 256.628906 297.617188 257.753906 295.945312 259.488281 295.125 C 266.636719 291.746094 272.417969 285.90625 275.761719 278.699219 C 276.585938 276.933594 278.410156 275.835938 280.355469 275.835938 C 280.875 275.835938 281.390625 275.929688 281.910156 276.082031 C 283.703125 276.628906 285.46875 277.238281 287.230469 277.875 C 289.816406 278.820312 291.1875 281.558594 290.394531 284.113281 C 286.136719 297.527344 276.25 308.328125 263.261719 313.742188 Z M 263.261719 313.742188 " fill-opacity="1" fill-rule="nonzero"/></g></svg>