<svg xmlns="http://www.w3.org/2000/svg" xmlns:xlink="http://www.w3.org/1999/xlink" width="500" zoomAndPan="magnify" viewBox="0 0 375 374.999991" height="500" preserveAspectRatio="xMidYMid meet" version="1.0"><defs><clipPath id="415c276d8b"><path d="M 187.5 0 C 83.945312 0 0 83.945312 0 187.5 C 0 291.054688 83.945312 375 187.5 375 C 291.054688 375 375 291.054688 375 187.5 C 375 83.945312 291.054688 0 187.5 0 Z M 187.5 0 " clip-rule="nonzero"/></clipPath><clipPath id="b00f4d829c"><path d="M 37.5 79.339844 L 256.5 79.339844 L 256.5 298.339844 L 37.5 298.339844 Z M 37.5 79.339844 " clip-rule="nonzero"/></clipPath></defs><g clip-path="url(#415c276d8b)"><rect x="-37.5" width="450" fill="#a6a6a6" y="-37.499999" height="449.999989" fill-opacity="1"/></g><g clip-path="url(#b00f4d829c)"><path fill="#d9d9d9" d="M 252.035156 265.894531 L 247.371094 265.894531 L 247.371094 107.324219 C 247.371094 91.886719 234.824219 79.339844 219.390625 79.339844 L 65.484375 79.339844 C 50.046875 79.339844 37.5 91.886719 37.5 107.324219 C 37.5 109.886719 39.597656 111.988281 42.164062 111.988281 L 84.136719 111.988281 L 84.136719 270.558594 C 84.136719 285.992188 96.683594 298.539062 112.121094 298.539062 L 228.714844 298.539062 C 244.152344 298.539062 256.699219 285.992188 256.699219 270.558594 C 256.699219 267.992188 254.601562 265.894531 252.035156 265.894531 Z M 65.484375 88.667969 C 74.15625 88.667969 81.457031 94.636719 83.53125 102.660156 L 47.433594 102.660156 C 49.507812 94.636719 56.808594 88.667969 65.484375 88.667969 Z M 93.464844 270.558594 L 93.464844 107.324219 C 93.464844 100.164062 90.738281 93.636719 86.285156 88.667969 L 219.390625 88.667969 C 229.671875 88.667969 238.042969 97.039062 238.042969 107.324219 L 238.042969 265.894531 L 135.441406 265.894531 C 132.875 265.894531 130.777344 267.992188 130.777344 270.558594 C 130.777344 280.839844 122.40625 289.210938 112.121094 289.210938 C 101.835938 289.210938 93.464844 280.839844 93.464844 270.558594 Z M 228.714844 289.210938 L 132.921875 289.210938 C 136.371094 285.363281 138.773438 280.539062 139.683594 275.21875 L 246.765625 275.21875 C 244.691406 283.242188 237.390625 289.210938 228.714844 289.210938 Z M 107.457031 107.324219 C 107.457031 104.757812 109.554688 102.660156 112.121094 102.660156 L 114.453125 102.660156 C 117.019531 102.660156 119.117188 104.757812 119.117188 107.324219 C 119.117188 109.886719 117.019531 111.988281 114.453125 111.988281 L 112.121094 111.988281 C 109.554688 111.988281 107.457031 109.886719 107.457031 107.324219 Z M 130.777344 107.324219 C 130.777344 104.757812 132.875 102.660156 135.441406 102.660156 L 217.058594 102.660156 C 219.621094 102.660156 221.71875 104.757812 221.71875 107.324219 C 221.71875 109.886719 219.621094 111.988281 217.058594 111.988281 L 135.441406 111.988281 C 132.875 111.988281 130.777344 109.886719 130.777344 107.324219 Z M 107.457031 130.640625 C 107.457031 128.078125 109.554688 125.980469 112.121094 125.980469 L 114.453125 125.980469 C 117.019531 125.980469 119.117188 128.078125 119.117188 130.640625 C 119.117188 133.207031 117.019531 135.304688 114.453125 135.304688 L 112.121094 135.304688 C 109.554688 135.304688 107.457031 133.207031 107.457031 130.640625 Z M 130.777344 130.640625 C 130.777344 128.078125 132.875 125.980469 135.441406 125.980469 L 217.058594 125.980469 C 219.621094 125.980469 221.71875 128.078125 221.71875 130.640625 C 221.71875 133.207031 219.621094 135.304688 217.058594 135.304688 L 135.441406 135.304688 C 132.875 135.304688 130.777344 133.207031 130.777344 130.640625 Z M 107.457031 153.960938 C 107.457031 151.394531 109.554688 149.296875 112.121094 149.296875 L 114.453125 149.296875 C 117.019531 149.296875 119.117188 151.394531 119.117188 153.960938 C 119.117188 156.527344 117.019531 158.625 114.453125 158.625 L 112.121094 158.625 C 109.554688 158.625 107.457031 156.527344 107.457031 153.960938 Z M 130.777344 153.960938 C 130.777344 151.394531 132.875 149.296875 135.441406 149.296875 L 217.058594 149.296875 C 219.621094 149.296875 221.71875 151.394531 221.71875 153.960938 C 221.71875 156.527344 219.621094 158.625 217.058594 158.625 L 135.441406 158.625 C 132.875 158.625 130.777344 156.527344 130.777344 153.960938 Z M 107.457031 177.28125 C 107.457031 174.714844 109.554688 172.617188 112.121094 172.617188 L 114.453125 172.617188 C 117.019531 172.617188 119.117188 174.714844 119.117188 177.28125 C 119.117188 179.847656 117.019531 181.945312 114.453125 181.945312 L 112.121094 181.945312 C 109.554688 181.945312 107.457031 179.847656 107.457031 177.28125 Z M 130.777344 177.28125 C 130.777344 174.714844 132.875 172.617188 135.441406 172.617188 L 217.058594 172.617188 C 219.621094 172.617188 221.71875 174.714844 221.71875 177.28125 C 221.71875 179.847656 219.621094 181.945312 217.058594 181.945312 L 135.441406 181.945312 C 132.875 181.945312 130.777344 179.847656 130.777344 177.28125 Z M 107.457031 200.601562 C 107.457031 198.035156 109.554688 195.9375 112.121094 195.9375 L 114.453125 195.9375 C 117.019531 195.9375 119.117188 198.035156 119.117188 200.601562 C 119.117188 203.164062 117.019531 205.261719 114.453125 205.261719 L 112.121094 205.261719 C 109.554688 205.261719 107.457031 203.164062 107.457031 200.601562 Z M 130.777344 200.601562 C 130.777344 198.035156 132.875 195.9375 135.441406 195.9375 L 217.058594 195.9375 C 219.621094 195.9375 221.71875 198.035156 221.71875 200.601562 C 221.71875 203.164062 219.621094 205.261719 217.058594 205.261719 L 135.441406 205.261719 C 132.875 205.261719 130.777344 203.164062 130.777344 200.601562 Z M 107.457031 223.917969 C 107.457031 221.355469 109.554688 219.253906 112.121094 219.253906 L 114.453125 219.253906 C 117.019531 219.253906 119.117188 221.355469 119.117188 223.917969 C 119.117188 226.484375 117.019531 228.582031 114.453125 228.582031 L 112.121094 228.582031 C 109.554688 228.582031 107.457031 226.484375 107.457031 223.917969 Z M 130.777344 223.917969 C 130.777344 221.355469 132.875 219.253906 135.441406 219.253906 L 217.058594 219.253906 C 219.621094 219.253906 221.71875 221.355469 221.71875 223.917969 C 221.71875 226.484375 219.621094 228.582031 217.058594 228.582031 L 135.441406 228.582031 C 132.875 228.582031 130.777344 226.484375 130.777344 223.917969 Z M 112.121094 251.902344 C 109.554688 251.902344 107.457031 249.804688 107.457031 247.238281 C 107.457031 244.671875 109.554688 242.574219 112.121094 242.574219 L 114.453125 242.574219 C 117.019531 242.574219 119.117188 244.671875 119.117188 247.238281 C 119.117188 249.804688 117.019531 251.902344 114.453125 251.902344 Z M 130.777344 247.238281 C 130.777344 244.671875 132.875 242.574219 135.441406 242.574219 L 217.058594 242.574219 C 219.621094 242.574219 221.71875 244.671875 221.71875 247.238281 C 221.71875 249.804688 219.621094 251.902344 217.058594 251.902344 L 135.441406 251.902344 C 132.875 251.902344 130.777344 249.804688 130.777344 247.238281 Z M 130.777344 247.238281 " fill-opacity="1" fill-rule="nonzero"/></g><path fill="#ffffff" d="M 280.929688 165.007812 C 280.175781 179.96875 273.753906 194.542969 261.738281 205.382812 C 249.761719 216.226562 234.621094 221.140625 219.652344 220.390625 C 204.683594 219.621094 190.109375 213.210938 179.257812 201.226562 C 168.429688 189.222656 163.539062 174.089844 164.269531 159.101562 C 165.03125 144.152344 171.449219 129.578125 183.4375 118.746094 C 195.433594 107.914062 210.578125 102.988281 225.542969 103.746094 C 240.519531 104.496094 255.078125 110.90625 265.921875 122.902344 C 276.761719 134.886719 281.65625 150.039062 280.929688 165.007812 Z M 339.738281 271.363281 L 286.699219 212.671875 C 297.46875 199.0625 303.40625 182.742188 304.25 166.199219 C 305.332031 145.332031 298.363281 123.953125 283.261719 107.234375 C 268.144531 90.511719 247.566406 81.453125 226.71875 80.410156 C 205.855469 79.335938 184.472656 86.289062 167.785156 101.402344 C 151.039062 116.53125 141.996094 137.082031 140.949219 157.929688 C 139.859375 178.785156 146.820312 200.164062 161.925781 216.886719 C 177.046875 233.605469 197.625 242.675781 218.480469 243.71875 C 235.019531 244.566406 251.875 240.28125 266.496094 230.9375 L 319.515625 289.621094 C 324.570312 295.214844 333.183594 295.636719 338.761719 290.59375 C 344.351562 285.550781 344.78125 276.933594 339.738281 271.363281 " fill-opacity="1" fill-rule="nonzero"/></svg>