<svg xmlns="http://www.w3.org/2000/svg" xmlns:xlink="http://www.w3.org/1999/xlink" width="500" zoomAndPan="magnify" viewBox="0 0 375 374.999991" height="500" preserveAspectRatio="xMidYMid meet" version="1.0"><defs><clipPath id="8863b21a86"><path d="M 187.5 0 C 83.945312 0 0 83.945312 0 187.5 C 0 291.054688 83.945312 375 187.5 375 C 291.054688 375 375 291.054688 375 187.5 C 375 83.945312 291.054688 0 187.5 0 Z M 187.5 0 " clip-rule="nonzero"/></clipPath><clipPath id="acba308b70"><path d="M 52 60.160156 L 324 60.160156 L 324 238 L 52 238 Z M 52 60.160156 " clip-rule="nonzero"/></clipPath></defs><g clip-path="url(#8863b21a86)"><rect x="-37.5" width="450" fill="#a6a6a6" y="-37.499999" height="449.999989" fill-opacity="1"/></g><path fill="#ffffff" d="M 116.269531 208.074219 L 116.269531 314.832031 L 148.101562 314.832031 L 148.101562 176.242188 Z M 116.269531 208.074219 " fill-opacity="1" fill-rule="nonzero"/><path fill="#ffffff" d="M 164.019531 176.242188 L 164.019531 314.832031 L 195.851562 314.832031 L 195.851562 208.074219 Z M 164.019531 176.242188 " fill-opacity="1" fill-rule="nonzero"/><path fill="#ffffff" d="M 211.769531 208.074219 L 211.769531 314.832031 L 243.605469 314.832031 L 243.605469 176.242188 Z M 211.769531 208.074219 " fill-opacity="1" fill-rule="nonzero"/><path fill="#ffffff" d="M 294.21875 126.160156 L 259.519531 160.324219 L 259.519531 314.832031 L 299.84375 314.832031 C 304.242188 314.832031 307.804688 311.273438 307.804688 306.875 L 307.804688 131.785156 C 307.804688 124.738281 299.238281 121.136719 294.21875 126.160156 Z M 294.21875 126.160156 " fill-opacity="1" fill-rule="nonzero"/><path fill="#ffffff" d="M 54.402344 269.414062 C 52.910156 270.90625 52.070312 272.925781 52.070312 275.039062 L 52.070312 306.875 C 52.070312 311.273438 55.628906 314.832031 60.027344 314.832031 L 100.351562 314.832031 L 100.351562 223.992188 Z M 54.402344 269.414062 " fill-opacity="1" fill-rule="nonzero"/><g clip-path="url(#acba308b70)"><path fill="#ffffff" d="M 315.761719 60.160156 L 283.925781 60.160156 C 279.527344 60.160156 275.96875 63.71875 275.96875 68.117188 C 275.96875 72.515625 279.527344 76.078125 283.925781 76.078125 L 299.277344 76.078125 L 203.8125 171.011719 L 161.6875 128.886719 C 158.578125 125.777344 153.542969 125.777344 150.433594 128.886719 L 54.402344 224.390625 C 51.292969 227.5 51.292969 232.535156 54.402344 235.644531 C 57.507812 238.753906 62.546875 238.753906 65.65625 235.644531 L 156.0625 145.769531 L 198.183594 187.890625 C 201.292969 191 206.328125 191 209.4375 187.890625 L 307.804688 90.058594 L 307.804688 99.953125 C 307.804688 104.351562 311.363281 107.910156 315.761719 107.910156 C 320.160156 107.910156 323.71875 104.351562 323.71875 99.953125 L 323.71875 68.117188 C 323.71875 63.71875 320.160156 60.160156 315.761719 60.160156 Z M 315.761719 60.160156 " fill-opacity="1" fill-rule="nonzero"/></g></svg>