<svg xmlns="http://www.w3.org/2000/svg" xmlns:xlink="http://www.w3.org/1999/xlink" width="500" zoomAndPan="magnify" viewBox="0 0 375 374.999991" height="500" preserveAspectRatio="xMidYMid meet" version="1.0"><defs><clipPath id="41b651f899"><path d="M 187.5 0 C 83.945312 0 0 83.945312 0 187.5 C 0 291.054688 83.945312 375 187.5 375 C 291.054688 375 375 291.054688 375 187.5 C 375 83.945312 291.054688 0 187.5 0 Z M 187.5 0 " clip-rule="nonzero"/></clipPath><clipPath id="0e901e11a0"><path d="M 37.5 137 L 55 137 L 55 170 L 37.5 170 Z M 37.5 137 " clip-rule="nonzero"/></clipPath><clipPath id="74cfa35adb"><path d="M 240.507812 135.636719 L 344.007812 135.636719 L 344.007812 239.136719 L 240.507812 239.136719 Z M 240.507812 135.636719 " clip-rule="nonzero"/></clipPath></defs><g clip-path="url(#41b651f899)"><rect x="-37.5" width="450" fill="#a6a6a6" y="-37.499999" height="449.999989" fill-opacity="1"/></g><path fill="#ffffff" d="M 57.011719 216.363281 C 57.011719 214.21875 58.925781 212.597656 61.046875 212.90625 C 67.542969 213.863281 72.753906 216.992188 78.746094 221.382812 C 79.890625 222.222656 80.734375 223.414062 81.136719 224.777344 L 83.511719 232.796875 C 83.664062 233.304688 83.230469 233.796875 82.703125 233.707031 L 59.527344 229.773438 C 58.074219 229.527344 57.011719 228.269531 57.011719 226.796875 Z M 95.445312 239.410156 L 95.238281 238.925781 C 88.253906 222.625 85.402344 215.972656 82.671875 209.601562 C 81.804688 207.574219 80.480469 205.773438 78.808594 204.332031 L 61.4375 189.375 C 61.4375 189.375 51.921875 204.253906 51.996094 233.179688 L 52.433594 233.242188 C 79.59375 237.136719 90.8125 238.746094 95.445312 239.410156 " fill-opacity="1" fill-rule="nonzero"/><path fill="#ffffff" d="M 61.890625 175.238281 L 61.871094 175.753906 C 61.882812 175.476562 61.886719 175.261719 61.894531 175.0625 L 61.890625 175.238281 " fill-opacity="1" fill-rule="nonzero"/><path fill="#ffffff" d="M 202.488281 216.363281 L 202.488281 226.796875 C 202.488281 228.269531 201.425781 229.527344 199.972656 229.773438 L 176.792969 233.707031 C 176.273438 233.796875 175.835938 233.304688 175.988281 232.796875 L 178.363281 224.777344 C 178.769531 223.414062 179.609375 222.222656 180.753906 221.382812 C 186.746094 216.992188 191.957031 213.863281 198.453125 212.90625 C 200.574219 212.597656 202.488281 214.21875 202.488281 216.363281 Z M 180.691406 204.332031 C 179.015625 205.773438 177.699219 207.574219 176.828125 209.601562 C 174.097656 215.972656 171.246094 222.625 164.261719 238.925781 L 164.054688 239.410156 C 168.683594 238.746094 179.902344 237.136719 207.066406 233.242188 L 207.503906 233.179688 C 207.578125 204.253906 198.0625 189.375 198.0625 189.375 L 180.691406 204.332031 " fill-opacity="1" fill-rule="nonzero"/><g clip-path="url(#0e901e11a0)"><path fill="#ffffff" d="M 54.496094 166.28125 L 54.496094 139.972656 C 54.496094 138.742188 53.292969 137.746094 51.800781 137.746094 L 41.800781 137.746094 C 40.242188 137.746094 38.964844 138.761719 38.90625 140.046875 L 37.65625 166.679688 C 37.597656 167.9375 38.457031 169.042969 39.734375 169.558594 C 40.230469 169.761719 40.785156 169.875 41.375 169.875 C 51.679688 169.875 48.109375 169.875 50.148438 169.875 C 52.550781 169.875 54.496094 168.265625 54.496094 166.28125 " fill-opacity="1" fill-rule="nonzero"/></g><path fill="#ffffff" d="M 129.75 242.660156 L 98.3125 242.660156 C 98.296875 242.65625 97.347656 242.523438 52.035156 236.023438 C 52.503906 255.597656 54.835938 268.46875 56.472656 275.246094 C 57.289062 278.625 60.308594 281.007812 63.785156 281.007812 L 195.714844 281.007812 C 199.191406 281.007812 202.210938 278.625 203.027344 275.246094 C 204.664062 268.46875 206.996094 255.597656 207.464844 236.023438 C 162.152344 242.523438 161.203125 242.65625 161.1875 242.660156 L 129.75 242.660156 " fill-opacity="1" fill-rule="nonzero"/><path fill="#ffffff" d="M 69.550781 138.761719 C 69.550781 133.617188 73.71875 129.449219 78.863281 129.449219 L 180.636719 129.449219 C 185.78125 129.449219 189.949219 133.617188 189.949219 138.761719 L 189.949219 167.800781 C 170.792969 164.855469 88.707031 164.855469 69.550781 167.800781 Z M 166.554688 204.617188 L 166.5625 204.585938 L 92.9375 204.585938 C 92.730469 203.09375 92.507812 201.53125 92.277344 199.882812 L 103.339844 198.222656 L 156.164062 198.222656 L 167.226562 199.882812 C 166.992188 201.542969 166.769531 203.117188 166.554688 204.617188 Z M 164.945312 216.03125 L 94.554688 216.03125 C 94.230469 213.746094 93.871094 211.1875 93.464844 208.316406 L 166.035156 208.316406 C 165.628906 211.1875 165.269531 213.746094 164.945312 216.03125 Z M 163.332031 227.476562 L 96.171875 227.476562 C 95.832031 225.085938 95.082031 219.765625 95.082031 219.765625 L 164.417969 219.765625 C 164.417969 219.765625 163.667969 225.085938 163.332031 227.476562 Z M 161.714844 238.925781 L 97.785156 238.925781 C 97.445312 236.507812 96.699219 231.210938 96.699219 231.210938 L 162.800781 231.210938 C 162.800781 231.210938 162.058594 236.507812 161.714844 238.925781 Z M 83.835938 191.976562 L 86.171875 194.125 C 87.113281 194.992188 87.753906 196.136719 88 197.394531 C 91.4375 215.007812 93.679688 226.472656 96.109375 238.925781 L 96.226562 239.523438 C 97.640625 239.726562 98.253906 239.8125 98.511719 239.851562 L 160.988281 239.851562 C 161.242188 239.816406 161.851562 239.726562 163.273438 239.523438 L 163.394531 238.925781 C 165.820312 226.472656 168.066406 215.007812 171.503906 197.394531 C 171.746094 196.136719 172.386719 194.992188 173.328125 194.125 L 175.664062 191.976562 L 197.332031 172.023438 L 197.503906 172.015625 L 196.125 128.804688 L 190.605469 90.351562 C 189.476562 82.503906 182.914062 76.574219 174.988281 76.246094 C 144.84375 74.996094 114.65625 74.996094 84.507812 76.246094 C 76.585938 76.574219 70.023438 82.503906 68.898438 90.351562 L 63.375 128.804688 L 61.996094 172.015625 L 62.167969 172.023438 L 83.835938 191.976562 " fill-opacity="1" fill-rule="nonzero"/><path fill="#ffffff" d="M 221.84375 166.679688 L 220.59375 140.046875 C 220.53125 138.761719 219.257812 137.746094 217.699219 137.746094 L 207.699219 137.746094 C 206.207031 137.746094 205.003906 138.742188 205.003906 139.972656 L 205.003906 166.28125 C 205.003906 168.265625 206.949219 169.875 209.347656 169.875 C 211.386719 169.875 207.820312 169.875 218.128906 169.875 C 218.714844 169.875 219.273438 169.761719 219.765625 169.5625 C 221.042969 169.042969 221.902344 167.9375 221.84375 166.679688 " fill-opacity="1" fill-rule="nonzero"/><path fill="#ffffff" d="M 195.714844 283.816406 L 178.703125 283.816406 L 178.703125 296.558594 C 178.703125 298.460938 180.242188 300 182.140625 300 L 201.5625 300 C 203.460938 300 205.003906 298.460938 205.003906 296.558594 L 205.003906 278.007812 C 203.304688 281.511719 199.742188 283.816406 195.714844 283.816406 " fill-opacity="1" fill-rule="nonzero"/><path fill="#ffffff" d="M 54.496094 278.007812 L 54.496094 296.558594 C 54.496094 298.460938 56.039062 300 57.9375 300 L 77.355469 300 C 79.257812 300 80.796875 298.460938 80.796875 296.558594 L 80.796875 283.816406 L 63.785156 283.816406 C 59.757812 283.816406 56.195312 281.511719 54.496094 278.007812 " fill-opacity="1" fill-rule="nonzero"/><path fill="#ffffff" d="M 206.027344 171.949219 L 200.382812 174.15625 L 200.472656 176.925781 L 200.59375 180.613281 L 214.496094 172.683594 L 209.351562 172.683594 C 208.152344 172.683594 207.019531 172.417969 206.027344 171.949219 " fill-opacity="1" fill-rule="nonzero"/><path fill="#ffffff" d="M 59.113281 174.15625 L 53.472656 171.949219 C 52.476562 172.417969 51.347656 172.683594 50.148438 172.683594 L 45.003906 172.683594 L 58.90625 180.613281 L 59.113281 174.15625 " fill-opacity="1" fill-rule="nonzero"/><g clip-path="url(#74cfa35adb)"><path fill="#ffffff" d="M 342.308594 177.894531 L 301.972656 177.894531 L 301.972656 137.554688 C 301.972656 136.496094 301.117188 135.636719 300.054688 135.636719 L 284.6875 135.636719 C 283.625 135.636719 282.765625 136.496094 282.765625 137.554688 L 282.765625 177.894531 L 242.429688 177.894531 C 241.367188 177.894531 240.507812 178.753906 240.507812 179.8125 L 240.507812 195.179688 C 240.507812 196.242188 241.367188 197.101562 242.429688 197.101562 L 282.765625 197.101562 L 282.765625 237.4375 C 282.765625 238.5 283.625 239.359375 284.6875 239.359375 L 300.054688 239.359375 C 301.117188 239.359375 301.972656 238.5 301.972656 237.4375 L 301.972656 197.101562 L 342.308594 197.101562 C 343.371094 197.101562 344.230469 196.242188 344.230469 195.179688 L 344.230469 179.8125 C 344.230469 178.753906 343.371094 177.894531 342.308594 177.894531 Z M 342.308594 177.894531 " fill-opacity="1" fill-rule="nonzero"/></g></svg>